<svg width="200" height="200" viewBox="0 0 100 100" xmlns="http://www.w3.org/2000/svg">
  <!-- Gradient Background -->
  <defs>
    <linearGradient id="logoGradient" x1="0%" y1="0%" x2="100%" y2="100%">
      <stop offset="0%" stop-color="#8b5cf6" /> <!-- violet-600 -->
      <stop offset="100%" stop-color="#4338ca" /> <!-- indigo-700 -->
    </linearGradient>
  </defs>
  
  <!-- Background Square with Rounded Corners -->
  <rect x="0" y="0" width="100" height="100" rx="16" ry="16" fill="url(#logoGradient)" />
  
  <!-- Neural Network Nodes and Connections -->
  <g>
    <!-- Input layer -->
    <circle cx="20" cy="30" r="8" fill="white" />
    <circle cx="20" cy="70" r="8" fill="white" />
    
    <!-- Hidden layer -->
    <circle cx="50" cy="20" r="8" fill="white" />
    <circle cx="50" cy="50" r="8" fill="white" />
    <circle cx="50" cy="80" r="8" fill="white" />
    
    <!-- Output layer -->
    <circle cx="80" cy="40" r="8" fill="white" />
    <circle cx="80" cy="60" r="8" fill="white" />
    
    <!-- Connections -->
    <line x1="20" y1="30" x2="50" y2="20" stroke="white" stroke-width="2" />
    <line x1="20" y1="30" x2="50" y2="50" stroke="white" stroke-width="2" />
    <line x1="20" y1="30" x2="50" y2="80" stroke="white" stroke-width="2" />
    
    <line x1="20" y1="70" x2="50" y2="20" stroke="white" stroke-width="2" />
    <line x1="20" y1="70" x2="50" y2="50" stroke="white" stroke-width="2" />
    <line x1="20" y1="70" x2="50" y2="80" stroke="white" stroke-width="2" />
    
    <line x1="50" y1="20" x2="80" y2="40" stroke="white" stroke-width="2" />
    <line x1="50" y1="20" x2="80" y2="60" stroke="white" stroke-width="2" />
    
    <line x1="50" y1="50" x2="80" y2="40" stroke="white" stroke-width="2" />
    <line x1="50" y1="50" x2="80" y2="60" stroke="white" stroke-width="2" />
    
    <line x1="50" y1="80" x2="80" y2="40" stroke="white" stroke-width="2" />
    <line x1="50" y1="80" x2="80" y2="60" stroke="white" stroke-width="2" />
  </g>
</svg>
